<mxfile host="Electron" agent="Mozilla/5.0 (Windows NT 10.0; Win64; x64) AppleWebKit/537.36 (KHTML, like Gecko) draw.io/27.0.5 Chrome/134.0.6998.205 Electron/35.3.0 Safari/537.36" version="27.0.5">
  <diagram name="Glencore ETI Dataflow" id="ElgzSjdAOmDEoadIIjxS">
    <mxGraphModel dx="2066" dy="1202" grid="1" gridSize="10" guides="1" tooltips="1" connect="1" arrows="1" fold="1" page="1" pageScale="1" pageWidth="827" pageHeight="1169" math="0" shadow="0">
      <root>
        <mxCell id="0" />
        <mxCell id="1" parent="0" />
        <mxCell id="-EhEWHjwj9EwwCt3Vy24-1" value="FIX&#xa;Glencore.ETI.AppiaSessionListener" style="rounded=1;whiteSpace=wrap;html=1;fontSize=12;glass=0;strokeWidth=1;shadow=0;fillColor=#dae8fc;strokeColor=#6c8ebf;" vertex="1" parent="1">
          <mxGeometry x="68" y="120" width="200" height="60" as="geometry" />
        </mxCell>
        <mxCell id="-EhEWHjwj9EwwCt3Vy24-2" value="CSV&#xa;Glencore.ETI.Csvs" style="rounded=1;whiteSpace=wrap;html=1;fontSize=12;glass=0;strokeWidth=1;shadow=0;fillColor=#dae8fc;strokeColor=#6c8ebf;" vertex="1" parent="1">
          <mxGeometry x="68" y="200" width="200" height="60" as="geometry" />
        </mxCell>
        <mxCell id="-EhEWHjwj9EwwCt3Vy24-3" value="Trayport&#xa;Glencore.ETI.Trayport" style="rounded=1;whiteSpace=wrap;html=1;fontSize=12;glass=0;strokeWidth=1;shadow=0;fillColor=#dae8fc;strokeColor=#6c8ebf;" vertex="1" parent="1">
          <mxGeometry x="68" y="280" width="200" height="60" as="geometry" />
        </mxCell>
        <mxCell id="-EhEWHjwj9EwwCt3Vy24-4" value="ETI Gateway Database" style="shape=cylinder3;whiteSpace=wrap;html=1;boundedLbl=1;backgroundOutline=1;size=15;fillColor=#f5f5f5;fontColor=#333333;strokeColor=#666666;" vertex="1" parent="1">
          <mxGeometry x="348" y="200" width="120" height="80" as="geometry" />
        </mxCell>
        <mxCell id="-EhEWHjwj9EwwCt3Vy24-5" value="Republisher&#xa;Glencore.ETI.Republisher" style="rounded=1;whiteSpace=wrap;html=1;fontSize=12;glass=0;strokeWidth=1;shadow=0;fillColor=#d5e8d4;strokeColor=#82b366;" vertex="1" parent="1">
          <mxGeometry x="558" y="200" width="200" height="60" as="geometry" />
        </mxCell>
        <mxCell id="-EhEWHjwj9EwwCt3Vy24-6" value="Mapping Service&#xa;Glencore.ETI.Services.Mapper" style="rounded=1;whiteSpace=wrap;html=1;fontSize=12;glass=0;strokeWidth=1;shadow=0;fillColor=#d5e8d4;strokeColor=#82b366;" vertex="1" parent="1">
          <mxGeometry x="558" y="330" width="200" height="60" as="geometry" />
        </mxCell>
        <mxCell id="-EhEWHjwj9EwwCt3Vy24-7" value="Audit Publisher" style="rounded=1;whiteSpace=wrap;html=1;fontSize=12;glass=0;strokeWidth=1;shadow=0;fillColor=#ffe6cc;strokeColor=#d79b00;" vertex="1" parent="1">
          <mxGeometry x="308" y="340" width="200" height="60" as="geometry" />
        </mxCell>
        <mxCell id="-EhEWHjwj9EwwCt3Vy24-8" value="Tempest Publisher&#xa;Glencore.ETI.Services.TempestPublisher" style="rounded=1;whiteSpace=wrap;html=1;fontSize=12;glass=0;strokeWidth=1;shadow=0;fillColor=#ffe6cc;strokeColor=#d79b00;" vertex="1" parent="1">
          <mxGeometry x="380" y="480" width="272" height="100" as="geometry" />
        </mxCell>
        <mxCell id="-EhEWHjwj9EwwCt3Vy24-9" value="Gas XL Publisher&#xa;Glencore.ETI.Services.GasXlPublisher" style="rounded=1;whiteSpace=wrap;html=1;fontSize=12;glass=0;strokeWidth=1;shadow=0;fillColor=#ffe6cc;strokeColor=#d79b00;" vertex="1" parent="1">
          <mxGeometry x="660" y="480" width="222" height="100" as="geometry" />
        </mxCell>
        <mxCell id="-EhEWHjwj9EwwCt3Vy24-10" value="" style="endArrow=classic;html=1;rounded=0;exitX=1;exitY=0.5;exitDx=0;exitDy=0;entryX=0;entryY=0.25;entryDx=0;entryDy=0;entryPerimeter=0;" edge="1" parent="1" source="-EhEWHjwj9EwwCt3Vy24-1" target="-EhEWHjwj9EwwCt3Vy24-4">
          <mxGeometry width="50" height="50" relative="1" as="geometry">
            <mxPoint x="338" y="410" as="sourcePoint" />
            <mxPoint x="388" y="360" as="targetPoint" />
          </mxGeometry>
        </mxCell>
        <mxCell id="-EhEWHjwj9EwwCt3Vy24-11" value="" style="endArrow=classic;html=1;rounded=0;exitX=1;exitY=0.5;exitDx=0;exitDy=0;entryX=0;entryY=0.5;entryDx=0;entryDy=0;entryPerimeter=0;" edge="1" parent="1" source="-EhEWHjwj9EwwCt3Vy24-2" target="-EhEWHjwj9EwwCt3Vy24-4">
          <mxGeometry width="50" height="50" relative="1" as="geometry">
            <mxPoint x="338" y="410" as="sourcePoint" />
            <mxPoint x="388" y="360" as="targetPoint" />
          </mxGeometry>
        </mxCell>
        <mxCell id="-EhEWHjwj9EwwCt3Vy24-12" value="" style="endArrow=classic;html=1;rounded=0;exitX=1;exitY=0.5;exitDx=0;exitDy=0;entryX=0;entryY=0.75;entryDx=0;entryDy=0;entryPerimeter=0;" edge="1" parent="1" source="-EhEWHjwj9EwwCt3Vy24-3" target="-EhEWHjwj9EwwCt3Vy24-4">
          <mxGeometry width="50" height="50" relative="1" as="geometry">
            <mxPoint x="338" y="410" as="sourcePoint" />
            <mxPoint x="388" y="360" as="targetPoint" />
          </mxGeometry>
        </mxCell>
        <mxCell id="-EhEWHjwj9EwwCt3Vy24-13" value="" style="endArrow=classic;html=1;rounded=0;exitX=1;exitY=0.5;exitDx=0;exitDy=0;exitPerimeter=0;entryX=0;entryY=0.5;entryDx=0;entryDy=0;" edge="1" parent="1" source="-EhEWHjwj9EwwCt3Vy24-4" target="-EhEWHjwj9EwwCt3Vy24-5">
          <mxGeometry width="50" height="50" relative="1" as="geometry">
            <mxPoint x="338" y="410" as="sourcePoint" />
            <mxPoint x="388" y="360" as="targetPoint" />
          </mxGeometry>
        </mxCell>
        <mxCell id="-EhEWHjwj9EwwCt3Vy24-14" value="" style="endArrow=classic;html=1;rounded=0;exitX=0.5;exitY=1;exitDx=0;exitDy=0;entryX=0.5;entryY=0;entryDx=0;entryDy=0;" edge="1" parent="1" source="-EhEWHjwj9EwwCt3Vy24-5" target="-EhEWHjwj9EwwCt3Vy24-6">
          <mxGeometry width="50" height="50" relative="1" as="geometry">
            <mxPoint x="338" y="410" as="sourcePoint" />
            <mxPoint x="388" y="360" as="targetPoint" />
          </mxGeometry>
        </mxCell>
        <mxCell id="-EhEWHjwj9EwwCt3Vy24-15" value="" style="endArrow=classic;html=1;rounded=0;exitX=0;exitY=0.75;exitDx=0;exitDy=0;entryX=1;entryY=0.5;entryDx=0;entryDy=0;" edge="1" parent="1" source="-EhEWHjwj9EwwCt3Vy24-6" target="-EhEWHjwj9EwwCt3Vy24-7">
          <mxGeometry width="50" height="50" relative="1" as="geometry">
            <mxPoint x="338" y="410" as="sourcePoint" />
            <mxPoint x="388" y="360" as="targetPoint" />
          </mxGeometry>
        </mxCell>
        <mxCell id="-EhEWHjwj9EwwCt3Vy24-17" value="" style="endArrow=classic;html=1;rounded=0;exitX=0.5;exitY=1;exitDx=0;exitDy=0;entryX=0.5;entryY=0;entryDx=0;entryDy=0;" edge="1" parent="1" source="-EhEWHjwj9EwwCt3Vy24-6" target="-EhEWHjwj9EwwCt3Vy24-8">
          <mxGeometry width="50" height="50" relative="1" as="geometry">
            <mxPoint x="338" y="410" as="sourcePoint" />
            <mxPoint x="388" y="360" as="targetPoint" />
          </mxGeometry>
        </mxCell>
        <mxCell id="-EhEWHjwj9EwwCt3Vy24-18" value="" style="endArrow=classic;html=1;rounded=0;exitX=0.5;exitY=1;exitDx=0;exitDy=0;entryX=0.5;entryY=0;entryDx=0;entryDy=0;" edge="1" parent="1" source="-EhEWHjwj9EwwCt3Vy24-6" target="-EhEWHjwj9EwwCt3Vy24-9">
          <mxGeometry width="50" height="50" relative="1" as="geometry">
            <mxPoint x="338" y="410" as="sourcePoint" />
            <mxPoint x="388" y="360" as="targetPoint" />
          </mxGeometry>
        </mxCell>
        <mxCell id="-EhEWHjwj9EwwCt3Vy24-19" value="Input Services" style="text;html=1;strokeColor=none;fillColor=none;align=center;verticalAlign=middle;whiteSpace=wrap;rounded=0;fontStyle=1" vertex="1" parent="1">
          <mxGeometry x="118" y="80" width="100" height="30" as="geometry" />
        </mxCell>
        <mxCell id="-EhEWHjwj9EwwCt3Vy24-20" value="Processing Services" style="text;html=1;strokeColor=none;fillColor=none;align=center;verticalAlign=middle;whiteSpace=wrap;rounded=0;fontStyle=1" vertex="1" parent="1">
          <mxGeometry x="598" y="160" width="120" height="30" as="geometry" />
        </mxCell>
        <mxCell id="-EhEWHjwj9EwwCt3Vy24-23" value="ETI Services" style="text;html=1;strokeColor=none;fillColor=none;align=center;verticalAlign=middle;whiteSpace=wrap;rounded=0;fontSize=24;fontStyle=1" vertex="1" parent="1">
          <mxGeometry x="400" y="40" width="300" height="30" as="geometry" />
        </mxCell>
        <mxCell id="-EhEWHjwj9EwwCt3Vy24-24" value="" style="endArrow=classic;html=1;rounded=0;exitX=0.5;exitY=0;exitDx=0;exitDy=0;entryX=0.5;entryY=1;entryDx=0;entryDy=0;entryPerimeter=0;" edge="1" parent="1" source="-EhEWHjwj9EwwCt3Vy24-7" target="-EhEWHjwj9EwwCt3Vy24-4">
          <mxGeometry width="50" height="50" relative="1" as="geometry">
            <mxPoint x="798" y="640" as="sourcePoint" />
            <mxPoint x="848" y="590" as="targetPoint" />
          </mxGeometry>
        </mxCell>
        <mxCell id="-EhEWHjwj9EwwCt3Vy24-26" value="Publishing Services&lt;div&gt;&lt;br&gt;&lt;/div&gt;" style="text;html=1;strokeColor=none;fillColor=none;align=center;verticalAlign=middle;whiteSpace=wrap;rounded=0;fontStyle=1" vertex="1" parent="1">
          <mxGeometry x="590" y="440" width="120" height="30" as="geometry" />
        </mxCell>
      </root>
    </mxGraphModel>
  </diagram>
</mxfile>
